<svg xmlns="http://www.w3.org/2000/svg" xmlns:xlink="http://www.w3.org/1999/xlink" fill="none" version="1.1" width="658" height="772" viewBox="0 0 658 772"><defs><linearGradient x1="1.04630446434021" y1="0.4146544337272644" x2="0.29260268646601356" y2="0.6664304979636648" id="master_svg0_25_0138"><stop offset="0%" stop-color="#FFEAAB" stop-opacity="1"/><stop offset="100%" stop-color="#E7A723" stop-opacity="1"/></linearGradient><linearGradient x1="1.0463149547576904" y1="0.41465145349502563" x2="0.2926070658727689" y2="0.6664315101318252" id="master_svg1_25_0139"><stop offset="0%" stop-color="#FFEAAB" stop-opacity="1"/><stop offset="100%" stop-color="#E7A723" stop-opacity="1"/></linearGradient><linearGradient x1="1.0463149547576904" y1="0.41465044021606445" x2="0.2926156848415679" y2="0.6664364631470575" id="master_svg2_25_0140"><stop offset="0%" stop-color="#FFEAAB" stop-opacity="1"/><stop offset="100%" stop-color="#E7A723" stop-opacity="1"/></linearGradient><linearGradient x1="0.7808138132095337" y1="0.4857858717441559" x2="-0.0251847905648598" y2="0.3000387830563198" id="master_svg3_25_0141"><stop offset="0%" stop-color="#FFEAAB" stop-opacity="1"/><stop offset="100%" stop-color="#E5A625" stop-opacity="1"/></linearGradient><linearGradient x1="0.7808030247688293" y1="0.4857889711856842" x2="-0.02518450102324505" y2="0.30003350651553407" id="master_svg4_25_0142"><stop offset="0%" stop-color="#FFEAAB" stop-opacity="1"/><stop offset="100%" stop-color="#E5A625" stop-opacity="1"/></linearGradient><linearGradient x1="0.7808146476745605" y1="0.4857964813709259" x2="-0.02518526087573696" y2="0.30003338889730646" id="master_svg5_25_0143"><stop offset="0%" stop-color="#FFEAAB" stop-opacity="1"/><stop offset="100%" stop-color="#E5A625" stop-opacity="1"/></linearGradient><linearGradient x1="0.6598971486091614" y1="0.8074301481246948" x2="0.15198087223832682" y2="0.5485893592755654" id="master_svg6_25_0144"><stop offset="0%" stop-color="#FFEAAB" stop-opacity="1"/><stop offset="100%" stop-color="#E7A624" stop-opacity="1"/></linearGradient></defs><path d="M658,196.43621826171875L658,609.0212982617188L603.20016,641.4946582617188L603.20016,297.6379382617188L548.1993,330.31242826171876L493.39946,362.98405826171876L438.59965,395.45737826171876L383.799824,428.12902826171876L329,460.80062826171877L329,392.06943826171874L383.799824,359.39782826171876L438.59965,326.72619826171876L493.39946,294.25274626171876L548.1993,261.58120726171876L603.20016,228.90967226171875L658,196.43621826171875Z" fill="url(#master_svg0_25_0138)" fill-opacity="1" style="mix-blend-mode:passthrough"/><path d="M548.1963703125,399.04595947265625L548.1963703125,674.1686694726562L493.3965603125,706.8402994726562L493.3965603125,500.44878947265624L438.5967203125,533.1204194726563L383.7968943125,565.5937994726562L328.9970703125,598.2654094726563L328.9970703125,529.5342094726562L383.7968943125,496.86257947265625L438.5967203125,464.38921347265625L493.3965603125,431.71758647265625L548.1963703125,399.04595947265625Z" fill="url(#master_svg1_25_0139)" fill-opacity="1" style="mix-blend-mode:passthrough"/><path d="M438.5967203125,601.8661499023438L438.5967203125,739.3283699023438L383.7968943125,771.9999999023437L383.7968943125,703.2687999023437L328.9970703125,735.9404299023438L328.9970703125,667.0111539023437L383.7968943125,634.5377769023437L438.5967203125,601.8661499023438Z" fill="url(#master_svg2_25_0140)" fill-opacity="1" style="mix-blend-mode:passthrough"/><path d="M328.99707,391.46643462402346L328.99707,460.19761462402346L274.19727,427.52601462402345L219.39742,395.05262462402345L164.39946,362.3809946240234L109.59965,329.70939462402345L54.799824,297.23593462402346L54.799824,641.0897046240234L0,608.4181346240234L0,195.83311462402344L54.799824,228.50464962402344L109.59965,260.9781116240234L164.39946,293.64964262402344L219.39742,326.1230146240234L274.19727,358.7946446240235L328.99707,391.46643462402346Z" fill="url(#master_svg3_25_0141)" fill-opacity="1" style="mix-blend-mode:passthrough"/><path d="M329.0058521557617,528.9433608300781L329.0058521557617,597.6745408300781L274.2060421557617,565.2011908300781L219.4062321557617,532.5295708300781L164.40534615576172,500.0561908300781L164.40534615576172,706.2496008300782L109.60552215576172,673.5779708300781L109.60552215576172,398.6533508300781L164.40534615576172,431.1267238300781L219.4062321557617,463.7983548300781L274.2060421557617,496.4699788300781L329.0058521557617,528.9433608300781Z" fill="url(#master_svg4_25_0142)" fill-opacity="1" style="mix-blend-mode:passthrough"/><path d="M328.99997958984375,666.614715828125L328.99997958984375,735.345928828125L274.20015358984375,702.671448828125L274.20015358984375,771.4026488281249L219.40032958984375,738.932108828125L219.40032958984375,601.268798828125L274.20015358984375,633.940425828125L328.99997958984375,666.614715828125Z" fill="url(#master_svg5_25_0143)" fill-opacity="1" style="mix-blend-mode:passthrough"/><path d="M548.2080238464355,130.68909L493.40821384643556,98.017548L438.6083838464356,65.343071L383.80857384643554,32.671535L329.00874384643555,0L274.20892384643554,32.671535L219.40908384643555,65.343071L164.60925384643554,98.017548L219.40908384643555,130.68909L274.20892384643554,163.36063L329.00874384643555,196.03214L383.80857384643554,228.70367L329.00874384643555,261.37817L274.20892384643554,228.70367L219.40908384643555,196.03214L164.41112384643554,163.16254L109.61129784643555,130.48805L54.81147384643555,163.16254L109.61129784643555,195.83406L164.41112384643554,228.5056L219.21095384643556,261.17715L274.01077384643554,293.85162L328.8105838464355,326.52313L383.61042384643554,293.85162L438.41022384643554,261.17715L493.21006384643556,228.5056L548.0069438464355,195.83406L603.2060038464356,163.16254L548.2080238464355,130.68909ZM438.6083838464356,195.83406L383.80857384643554,163.16254L329.00874384643555,130.48805L274.20892384643554,97.816528L329.00874384643555,65.144997L383.80857384643554,97.816528L438.6083838464356,130.48805L493.40821384643556,163.16254L438.6083838464356,195.83406Z" fill="url(#master_svg6_25_0144)" fill-opacity="1" style="mix-blend-mode:passthrough"/></svg>