<?xml version="1.0" encoding="UTF-8"?>
<svg width="17px" height="20px" viewBox="0 0 17 20" version="1.1" xmlns="http://www.w3.org/2000/svg" xmlns:xlink="http://www.w3.org/1999/xlink">
    <title>App store</title>
    <g id="App" stroke="none" stroke-width="1" fill="none" fill-rule="evenodd">
        <g id="Download" transform="translate(-128, -693)" fill="#FFFFFF" fill-rule="nonzero">
            <g id="Group备份" transform="translate(24, 679)">
                <g id="编组-2" transform="translate(104, 14)">
                    <path d="M11.6159828,3.1883433 C12.7762089,1.90328824 12.6709838,0 12.6709838,0 C12.6709838,0 10.6905472,0.174992867 9.53027292,1.46160792 C8.36997451,2.74496535 8.47503075,4.65164883 8.47503075,4.65164883 C8.47503075,4.65164883 10.4556121,4.47498129 11.6159828,3.1883433 L11.6159828,3.1883433 Z M14.1327731,10.6065678 C14.1327731,8.98503914 15.0738646,7.57009293 16.460245,6.83662784 C15.4910982,5.50495695 13.7857618,4.76837189 12.6010026,4.76837189 C11.1759528,4.76837189 9.21310204,5.7249827 8.64353082,5.7249827 C8.03854686,5.7249827 6.76959787,4.85992885 5.08006212,4.83657505 C3.68499741,4.81670827 1.34001211,5.58827812 0.519632728,7.87662864 C-0.300529542,10.1650021 -0.261980789,13.4715596 1.45377679,16.5432716 C2.82976011,19.0032656 4.04600003,20 5.22207499,20 C6.3997903,20 7.78783518,19.1449942 8.89402541,19.1449942 C9.99811691,19.1449942 11.0323479,20 12.173203,20 C13.3124178,20 14.4885169,19.1099406 15.3437542,17.881733 C16.1991121,16.6515066 16.9843923,14.739822 16.9843923,14.739822 C16.9843923,14.739822 16.9894341,14.688228 17,14.6165378 C15.322767,13.991583 14.1327731,12.4332565 14.1327731,10.6065678 L14.1327731,10.6065678 Z" id="App-store"></path>
                </g>
            </g>
        </g>
    </g>
</svg>