<svg width="29" height="22" viewBox="0 0 29 22" fill="none" xmlns="http://www.w3.org/2000/svg">
<path d="M22.6606 4.72856C22.6606 6.04825 21.5792 7.11807 20.2452 7.11807C18.9112 7.11807 17.8298 6.04825 17.8298 4.72856C17.8298 3.40887 18.9112 2.33905 20.2452 2.33905C21.5792 2.33905 22.6606 3.40887 22.6606 4.72856Z" fill="#A259FF" fill-opacity="0.5"/>
<path d="M13.2688 4.47051C13.2688 6.64291 11.7356 8.1867 9.8444 8.1867C7.95319 8.1867 6.42005 6.64291 6.42005 4.47051C6.42005 2.29811 7.95319 1 9.8444 1C11.7356 1 13.2688 2.29811 13.2688 4.47051Z" fill="#A259FF" fill-opacity="0.5"/>
<path d="M18.7688 16.9541C18.7688 19.1886 16.1272 21 10.0514 21C3.97563 21 1.33398 19.1886 1.33398 16.9541C1.33398 14.7196 5.2369 12.9082 10.0514 12.9082C14.8659 12.9082 18.7688 14.7196 18.7688 16.9541Z" fill="#A259FF" fill-opacity="0.5"/>
<path d="M23.2032 18.3707C22.6584 18.4612 22.2901 18.9762 22.3806 19.5211C22.4711 20.0659 22.9862 20.4342 23.531 20.3436L23.2032 18.3707ZM21.5782 10.5462C21.0259 10.5462 20.5782 10.994 20.5782 11.5462C20.5782 12.0985 21.0259 12.5462 21.5782 12.5462V10.5462ZM20.2452 7.11807V8.11807C22.1213 8.11807 23.6606 6.61066 23.6606 4.72856H22.6606H21.6606C21.6606 5.48584 21.0371 6.11807 20.2452 6.11807V7.11807ZM17.8298 4.72856H16.8298C16.8298 6.61066 18.3691 8.11807 20.2452 8.11807V7.11807V6.11807C19.4533 6.11807 18.8298 5.48584 18.8298 4.72856H17.8298ZM20.2452 2.33905V1.33905C18.3691 1.33905 16.8298 2.84646 16.8298 4.72856H17.8298H18.8298C18.8298 3.97128 19.4533 3.33905 20.2452 3.33905V2.33905ZM22.6606 4.72856H23.6606C23.6606 2.84646 22.1213 1.33905 20.2452 1.33905V2.33905V3.33905C21.0371 3.33905 21.6606 3.97128 21.6606 4.72856H22.6606ZM27.334 15.5201H26.334C26.334 16.2044 26.1125 16.793 25.6605 17.262C25.1987 17.7411 24.4248 18.1677 23.2032 18.3707L23.3671 19.3572L23.531 20.3436C25.0561 20.0903 26.2656 19.5162 27.1006 18.6499C27.9454 17.7733 28.334 16.6715 28.334 15.5201H27.334ZM21.5782 11.5462V12.5462C22.9905 12.5462 24.2255 12.9432 25.08 13.5331C25.9386 14.1259 26.334 14.8449 26.334 15.5201H27.334H28.334C28.334 14.0006 27.4409 12.7327 26.2163 11.8872C24.9876 11.0389 23.3447 10.5462 21.5782 10.5462V11.5462ZM13.2688 4.47051H12.2688C12.2688 6.14725 11.1284 7.1867 9.8444 7.1867V8.1867V9.1867C12.3429 9.1867 14.2688 7.13857 14.2688 4.47051H13.2688ZM9.8444 8.1867V7.1867C8.56045 7.1867 7.42005 6.14725 7.42005 4.47051H6.42005H5.42005C5.42005 7.13857 7.34593 9.1867 9.8444 9.1867V8.1867ZM6.42005 4.47051H7.42005C7.42005 3.63105 7.71003 3.03206 8.11627 2.64131C8.52952 2.24379 9.12794 2 9.8444 2V1V0C8.66965 0 7.55589 0.40526 6.72978 1.1999C5.89664 2.0013 5.42005 3.13757 5.42005 4.47051H6.42005ZM9.8444 1V2C10.5609 2 11.1593 2.24379 11.5725 2.64131C11.9788 3.03206 12.2688 3.63105 12.2688 4.47051H13.2688H14.2688C14.2688 3.13757 13.7922 2.0013 12.959 1.1999C12.1329 0.40526 11.0192 0 9.8444 0V1ZM18.7688 16.9541H17.7688C17.7688 17.5961 17.4179 18.3138 16.2302 18.9262C15.0109 19.5549 13.0127 20 10.0514 20V21V22C13.1658 22 15.5264 21.5394 17.1468 20.7038C18.799 19.8519 19.7688 18.5466 19.7688 16.9541H18.7688ZM10.0514 21V20C7.09005 20 5.09191 19.5549 3.87258 18.9262C2.68494 18.3138 2.33398 17.5961 2.33398 16.9541H1.33398H0.333984C0.333984 18.5466 1.30384 19.8519 2.95597 20.7038C4.57641 21.5394 6.93697 22 10.0514 22V21ZM1.33398 16.9541H2.33398C2.33398 16.4591 2.80703 15.697 4.30824 15.0003C5.72641 14.3421 7.75589 13.9082 10.0514 13.9082V12.9082V11.9082C7.53242 11.9082 5.20319 12.38 3.46627 13.1862C1.8124 13.9537 0.333984 15.2146 0.333984 16.9541H1.33398ZM10.0514 12.9082V13.9082C12.3469 13.9082 14.3764 14.3421 15.7946 15.0003C17.2958 15.697 17.7688 16.4591 17.7688 16.9541H18.7688H19.7688C19.7688 15.2146 18.2904 13.9537 16.6365 13.1862C14.8996 12.38 12.5704 11.9082 10.0514 11.9082V12.9082Z" fill="#892CFF"/>
</svg>
