<?xml version="1.0" encoding="UTF-8"?>
<svg width="6px" height="10px" viewBox="0 0 6 10" version="1.1" xmlns="http://www.w3.org/2000/svg" xmlns:xlink="http://www.w3.org/1999/xlink">
    <title>Union备份</title>
    <g id="App" stroke="none" stroke-width="1" fill="none" fill-rule="evenodd">
        <g id="Purchase-history" transform="translate(-344, -181)" fill="#403932">
            <g id="编组-12" transform="translate(24, 158)">
                <path d="M324.144565,23.329529 C324.504743,22.9502894 325.160751,22.8894433 325.609805,23.1936194 C326.058859,23.4977956 326.130912,24.0518102 325.770735,24.4310498 C324.114866,26.1745562 322.984543,27.364701 322.379768,28.0014841 C322.985579,28.638887 324.114987,29.8280711 325.768359,31.5689501 C326.128536,31.9481899 326.056482,32.5022045 325.607428,32.8063804 C325.158374,33.1105563 324.502365,33.0497098 324.142188,32.67047 L324.127816,32.6553368 C323.979299,32.4989601 322.679782,31.1306639 320.229264,28.5504482 C319.907515,28.2116698 319.930686,27.7334209 320.259407,27.4183922 C322.849879,24.6927373 324.144565,23.329529 324.144565,23.329529 Z" id="Union备份" transform="translate(323, 28) scale(1, -1) rotate(180) translate(-323, -28)"></path>
            </g>
        </g>
    </g>
</svg>