<svg width="30" height="30" viewBox="0 0 30 30" fill="none" xmlns="http://www.w3.org/2000/svg">
<g id="&#231;&#188;&#150;&#231;&#187;&#132; 2">
<path id="&#229;&#189;&#162;&#231;&#138;&#182;&#231;&#187;&#147;&#229;&#144;&#136;" d="M15 0C23.2843 0 30 6.71573 30 15C30 23.2843 23.2843 30 15 30C6.71573 30 0 23.2843 0 15C0 6.71573 6.71573 0 15 0ZM15 4C8.92515 4.0004 4.00098 8.92515 4.00098 15C4.00098 21.0749 8.92515 25.9996 15 26C18.9301 26.0003 22.5622 23.9035 24.5273 20.5C26.4922 17.0967 26.4922 12.9033 24.5273 9.5C22.5622 6.09648 18.9301 3.99974 15 4Z" fill="#F0B90B"/>
<path id="&#232;&#183;&#175;&#229;&#190;&#132;" d="M15 19.04L10.674 21.314L11.5 16.498L8 13.086L12.836 12.382L15 8L17.164 12.382L22 13.086L18.5 16.498L19.326 21.314L15 19.04Z" fill="white"/>
</g>
</svg>
